<?xml version="1.0" encoding="UTF-8"?> <svg xmlns="http://www.w3.org/2000/svg" width="300" height="284" viewBox="0 0 300 284" fill="none"><rect x="0.5" y="1.46631" width="299" height="281.983" rx="23.5" fill="white"></rect><path d="M125.121 133.017C124.613 129.274 122.553 126.027 118.811 123.089L116.659 121.638L115.217 123.818C113.379 126.626 112.455 130.528 112.76 134.262C112.899 135.572 113.324 137.93 114.654 139.989C113.324 140.719 110.7 141.72 107.208 141.645H73.7931H40.3784L40.2491 142.422C39.6209 146.174 39.6301 157.89 47.1408 166.892C52.85 173.733 61.4046 177.205 72.5645 177.205C96.7687 177.205 114.682 165.919 123.07 145.398C126.368 145.463 133.472 145.416 137.121 138.36C137.214 138.201 137.435 137.771 138.073 136.433L138.424 135.703L136.373 134.318C134.156 132.811 129.056 132.259 125.13 133.017H125.121ZM93.8124 107.966H83.6503V117.324H93.8124V107.966ZM93.8124 119.196H83.6503V128.553H93.8124V119.196ZM81.8027 119.196H71.6406V128.553H81.8027V119.196ZM69.793 119.196H59.6309V128.553H69.793V119.196ZM57.7833 130.425H47.6212V139.783H57.7833V130.425ZM69.793 130.425H59.6309V139.783H69.793V130.425ZM81.8027 130.425H71.6406V139.783H81.8027V130.425ZM93.8124 130.425H83.6503V139.783H93.8124V130.425ZM105.822 130.425H95.6601V139.783H105.822V130.425Z" fill="#1D63ED"></path><path d="M179.862 137.525C179.433 137.525 179.084 137.666 178.804 137.945C178.524 138.223 178.386 138.58 178.386 139.005V146.109C176.947 144.944 175.287 144.356 173.399 144.356C171.204 144.356 169.326 145.133 167.771 146.692C166.216 148.246 165.444 150.126 165.444 152.331C165.444 154.536 166.221 156.411 167.771 157.97C169.326 159.524 171.198 160.307 173.399 160.307C175.599 160.307 177.45 159.53 179.026 157.97C180.581 156.432 181.353 154.552 181.353 152.331V139.005C181.353 138.58 181.21 138.223 180.92 137.945C180.629 137.666 180.28 137.525 179.862 137.525ZM177.995 154.263C177.736 154.867 177.381 155.398 176.932 155.849C176.482 156.306 175.953 156.663 175.35 156.931C174.742 157.198 174.097 157.33 173.404 157.33C172.711 157.33 172.05 157.198 171.442 156.931C170.833 156.663 170.31 156.306 169.865 155.854C169.421 155.403 169.067 154.872 168.808 154.269C168.549 153.66 168.416 153.014 168.416 152.331C168.416 151.649 168.549 151.003 168.808 150.394C169.067 149.785 169.421 149.26 169.865 148.808C170.31 148.356 170.839 147.999 171.442 147.732C172.05 147.464 172.7 147.333 173.404 147.333C174.107 147.333 174.742 147.464 175.35 147.732C175.958 147.999 176.482 148.356 176.932 148.813C177.381 149.27 177.736 149.8 177.995 150.399C178.254 151.003 178.386 151.643 178.386 152.326C178.386 153.008 178.254 153.654 177.995 154.253V154.263ZM244.885 146.697C243.314 145.143 241.436 144.361 239.257 144.361C237.078 144.361 235.185 145.138 233.63 146.697C232.075 148.251 231.303 150.131 231.303 152.336C231.303 154.542 232.08 156.416 233.63 157.976C235.185 159.53 237.057 160.312 239.257 160.312C241.257 160.312 242.986 159.666 244.456 158.375C244.742 158.081 244.885 157.724 244.885 157.309C244.885 156.894 244.747 156.526 244.467 156.248C244.187 155.97 243.832 155.828 243.409 155.828C243.039 155.839 242.711 155.959 242.431 156.201C241.987 156.579 241.505 156.868 240.982 157.057C240.458 157.246 239.887 157.34 239.263 157.34C238.713 157.34 238.184 157.256 237.681 157.083C237.179 156.91 236.708 156.673 236.29 156.364C235.867 156.054 235.502 155.686 235.19 155.25C234.878 154.82 234.64 154.342 234.481 153.817H245.731C246.149 153.817 246.498 153.675 246.789 153.397C247.08 153.119 247.223 152.762 247.223 152.336C247.223 151.234 247.027 150.21 246.641 149.27C246.255 148.325 245.668 147.469 244.896 146.703L244.885 146.697ZM234.471 150.856C234.624 150.336 234.857 149.858 235.169 149.422C235.481 148.992 235.851 148.619 236.274 148.309C236.703 147.999 237.168 147.763 237.681 147.59C238.194 147.417 238.718 147.333 239.257 147.333C239.797 147.333 240.32 147.417 240.828 147.59C241.336 147.763 241.801 147.999 242.219 148.309C242.642 148.619 243.013 148.987 243.325 149.422C243.642 149.853 243.88 150.331 244.044 150.856H234.471ZM260.466 145.358C260.202 145.101 259.869 144.902 259.467 144.755C259.065 144.608 258.626 144.508 258.144 144.45C257.668 144.392 257.219 144.366 256.801 144.366C255.854 144.366 254.966 144.518 254.13 144.823C253.294 145.127 252.522 145.563 251.814 146.13V145.847C251.814 145.437 251.671 145.091 251.38 144.802C251.089 144.513 250.745 144.366 250.338 144.366C249.931 144.366 249.571 144.513 249.28 144.802C248.989 145.091 248.846 145.442 248.846 145.847V158.831C248.846 159.241 248.989 159.587 249.28 159.876C249.571 160.165 249.92 160.312 250.338 160.312C250.756 160.312 251.094 160.165 251.38 159.876C251.671 159.587 251.814 159.236 251.814 158.831V152.336C251.814 151.643 251.946 150.992 252.205 150.383C252.464 149.774 252.818 149.249 253.268 148.798C253.718 148.346 254.246 147.989 254.849 147.732C255.458 147.469 256.103 147.338 256.796 147.338C257.489 147.338 258.144 147.459 258.742 147.695C258.98 147.8 259.186 147.852 259.366 147.852C259.573 147.852 259.768 147.816 259.948 147.737C260.128 147.658 260.287 147.553 260.419 147.417C260.551 147.28 260.657 147.123 260.736 146.939C260.815 146.76 260.858 146.566 260.858 146.356C260.858 145.946 260.726 145.616 260.461 145.358H260.466ZM196.623 146.697C195.052 145.143 193.174 144.361 190.995 144.361C188.816 144.361 186.923 145.138 185.368 146.697C183.813 148.251 183.04 150.131 183.04 152.336C183.04 154.542 183.818 156.416 185.368 157.976C186.923 159.53 188.795 160.312 190.995 160.312C193.195 160.312 195.046 159.535 196.623 157.976C198.178 156.437 198.95 154.557 198.95 152.336C198.939 151.234 198.744 150.215 198.363 149.275C197.977 148.335 197.4 147.474 196.623 146.697ZM195.591 154.263C195.332 154.867 194.978 155.398 194.528 155.849C194.079 156.306 193.55 156.663 192.947 156.931C192.344 157.198 191.693 157.33 191 157.33C190.308 157.33 189.646 157.198 189.038 156.931C188.43 156.663 187.906 156.306 187.462 155.854C187.018 155.403 186.663 154.872 186.404 154.269C186.145 153.66 186.013 153.014 186.013 152.331C186.013 151.649 186.145 151.003 186.404 150.394C186.663 149.785 187.018 149.26 187.462 148.808C187.906 148.356 188.435 147.999 189.038 147.732C189.646 147.464 190.297 147.333 191 147.333C191.704 147.333 192.339 147.464 192.947 147.732C193.555 147.999 194.079 148.356 194.528 148.813C194.978 149.27 195.332 149.8 195.591 150.399C195.85 151.003 195.983 151.643 195.983 152.326C195.983 153.008 195.85 153.654 195.591 154.253V154.263ZM229.695 145.841C229.695 145.642 229.653 145.453 229.573 145.274C229.494 145.096 229.388 144.933 229.256 144.797C229.124 144.66 228.965 144.55 228.785 144.476C228.605 144.403 228.41 144.361 228.203 144.361C227.907 144.361 227.643 144.434 227.41 144.587L218.916 150.126V139.016C218.916 138.596 218.773 138.244 218.482 137.955C218.191 137.666 217.847 137.519 217.44 137.519C217.033 137.519 216.673 137.666 216.382 137.955C216.091 138.244 215.949 138.596 215.949 139.016V158.81C215.949 159.22 216.091 159.572 216.382 159.866C216.673 160.16 217.022 160.307 217.44 160.307C217.858 160.307 218.197 160.16 218.482 159.866C218.773 159.572 218.916 159.22 218.916 158.81V153.67L220.651 152.531L227.214 159.918C227.479 160.176 227.812 160.302 228.209 160.302C228.415 160.302 228.611 160.265 228.79 160.186C228.97 160.113 229.129 160.002 229.261 159.866C229.393 159.729 229.499 159.572 229.578 159.388C229.658 159.209 229.7 159.015 229.7 158.821C229.7 158.432 229.563 158.086 229.288 157.781L223.179 150.887L229.129 147.012C229.51 146.755 229.695 146.361 229.695 145.831V145.841ZM205.032 148.798C205.487 148.346 206.016 147.989 206.624 147.732C207.232 147.469 207.878 147.338 208.571 147.338C209.195 147.338 209.771 147.443 210.305 147.653C210.834 147.863 211.342 148.173 211.823 148.577C212.109 148.803 212.431 148.918 212.791 148.918C213.22 148.918 213.569 148.777 213.849 148.493C214.129 148.209 214.267 147.852 214.267 147.427C214.267 147.002 214.098 146.608 213.754 146.304C212.294 145.012 210.564 144.366 208.571 144.366C206.376 144.366 204.498 145.143 202.943 146.703C201.388 148.257 200.616 150.136 200.616 152.342C200.616 154.547 201.393 156.421 202.943 157.981C204.498 159.535 206.37 160.317 208.571 160.317C210.559 160.317 212.289 159.671 213.754 158.38C214.066 158.065 214.224 157.703 214.224 157.282C214.224 156.862 214.087 156.5 213.807 156.222C213.526 155.944 213.172 155.802 212.749 155.802C212.389 155.812 212.077 155.917 211.813 156.117C211.337 156.526 210.84 156.831 210.305 157.036C209.776 157.24 209.2 157.34 208.571 157.34C207.878 157.34 207.232 157.209 206.624 156.946C206.016 156.684 205.487 156.327 205.032 155.881C204.577 155.434 204.218 154.899 203.958 154.295C203.699 153.686 203.567 153.035 203.567 152.342C203.567 151.649 203.699 150.998 203.958 150.388C204.218 149.779 204.577 149.254 205.032 148.803V148.798Z" fill="#1D63ED"></path><rect x="0.5" y="1.46631" width="299" height="281.983" rx="23.5" stroke="#E1E2E6"></rect></svg> 